<?xml version="1.0" encoding="UTF-8"?>
<svg xmlns="http://www.w3.org/2000/svg" width="1440" height="2968" viewBox="0 0 1440 2968">
  <defs>
    <style>
      @font-face { font-family: 'Noto Sans JP'; src: url('C:/Windows/Fonts/NotoSansJP-VF.ttf'); }
      @font-face { font-family: 'Noto Serif JP'; src: url('C:/Windows/Fonts/NotoSerifJP-VF.ttf'); }
      text { dominant-baseline: alphabetic; }
    </style>
    <linearGradient id="heroWash" x1="0" y1="0" x2="1" y2="1">
      <stop offset="0" stop-color="#fffdf9"/>
      <stop offset="1" stop-color="#f2ebe2"/>
    </linearGradient>
    <filter id="softShadow" x="-20%" y="-20%" width="140%" height="140%">
      <feDropShadow dx="0" dy="10" stdDeviation="18" flood-color="#8c7464" flood-opacity=".08"/>
    </filter>
  </defs>

  <rect width="1440" height="2968" fill="#fbf8f2"/>

  <rect x="0" y="0" width="1440" height="116" fill="rgba(255,253,248,.95)"/>
  <line x1="0" y1="116" x2="1440" y2="116" stroke="#ded7ce"/>
  <text x="92" y="72" font-family="Noto Serif JP" font-size="27" font-weight="500" fill="#282522" text-anchor="start" letter-spacing="0" opacity="1">Manatsu Sawada</text>
  <text x="675" y="72" font-family="Noto Sans JP" font-size="16" font-weight="400" fill="#282522" text-anchor="start" letter-spacing="0" opacity="1">About</text>
  <text x="775" y="72" font-family="Noto Sans JP" font-size="16" font-weight="400" fill="#282522" text-anchor="start" letter-spacing="0" opacity="1">Skills</text>
  <text x="873" y="72" font-family="Noto Sans JP" font-size="16" font-weight="400" fill="#282522" text-anchor="start" letter-spacing="0" opacity="1">Works</text>
  <text x="981" y="72" font-family="Noto Sans JP" font-size="16" font-weight="400" fill="#282522" text-anchor="start" letter-spacing="0" opacity="1">Illustration</text>
  <text x="1120" y="72" font-family="Noto Sans JP" font-size="16" font-weight="400" fill="#282522" text-anchor="start" letter-spacing="0" opacity="1">Contact</text>
  <rect x="1260" y="43" width="52" height="38" rx="10" fill="#eee7df"/>
  <text x="1286" y="68" font-family="Noto Sans JP" font-size="15" font-weight="600" fill="#282522" text-anchor="middle" letter-spacing="0" opacity="1">JP</text>
  <text x="1324" y="68" font-family="Noto Sans JP" font-size="18" font-weight="400" fill="#6f6860" text-anchor="start" letter-spacing="0" opacity="1">/</text>
  <text x="1350" y="68" font-family="Noto Sans JP" font-size="15" font-weight="400" fill="#282522" text-anchor="start" letter-spacing="0" opacity="1">EN</text>

  <rect x="0" y="116" width="1440" height="620" fill="url(#heroWash)"/>
  <path d="M0 116 C180 210, 200 548, 0 736 Z" fill="#ffffff" opacity=".48"/>
  <circle cx="1148" cy="328" r="190" fill="#e9ded3" opacity=".36"/>
  <rect x="860" y="388" width="245" height="152" rx="10" fill="#cfc6bc" opacity=".72" transform="skewY(6)"/>
  <rect x="872" y="396" width="220" height="134" rx="8" fill="#bfb5aa" opacity=".55" transform="skewY(6)"/>
  <ellipse cx="1180" cy="550" rx="210" ry="20" fill="#d9cec3" opacity=".52"/>
  <rect x="1168" y="415" width="55" height="118" rx="22" fill="none" stroke="#b9a99c" stroke-width="3"/>
  <path d="M1196 414 C1168 302, 1098 238, 1062 180 M1196 414 C1218 300, 1284 238, 1322 178 M1196 414 C1198 286, 1192 214, 1182 160" fill="none" stroke="#b9a99c" stroke-width="2" opacity=".75"/>
  <g fill="#b9a99c" opacity=".78">
    <circle cx="1062" cy="180" r="4"/><circle cx="1090" cy="214" r="4"/><circle cx="1128" cy="246" r="4"/>
    <circle cx="1322" cy="178" r="4"/><circle cx="1284" cy="238" r="4"/><circle cx="1244" cy="266" r="4"/>
    <circle cx="1182" cy="160" r="4"/><circle cx="1204" cy="230" r="4"/><circle cx="1190" cy="292" r="4"/>
  </g>
  <rect x="1228" y="448" width="96" height="78" rx="16" fill="#ffffff" stroke="#ded7ce"/>
  <path d="M1323 468 C1372 466, 1367 516, 1323 510" fill="none" stroke="#b9a99c" stroke-width="3"/>

  <text x="92" y="330" font-family="Noto Serif JP" font-size="84" font-weight="500" fill="#282522" text-anchor="start" letter-spacing="0" opacity="1">Manatsu Sawada</text>
  <text x="96" y="412" font-family="Noto Sans JP" font-size="30" font-weight="400" fill="#8c7464" text-anchor="start" letter-spacing="0" opacity="1">Web Learner / Nurse / Illustrator</text>
  <text x="96" y="474" font-family="Noto Sans JP" font-size="22" font-weight="400" fill="#282522" text-anchor="start" letter-spacing="0" opacity="1">看護の経験を活かしながら、Web制作とAIツールを学んでいます。</text><text x="96" y="514" font-family="Noto Sans JP" font-size="22" font-weight="400" fill="#282522" text-anchor="start" letter-spacing="0" opacity="1">実用的で、使う人に寄り添うデジタル制作を目指しています。</text>
  <rect x="96" y="588" width="172" height="44" rx="22" fill="#282522"/>
  <text x="182" y="617" font-family="Noto Sans JP" font-size="16" font-weight="500" fill="#ffffff" text-anchor="middle" letter-spacing="0" opacity="1">Worksを見る</text>
  <rect x="282" y="588" width="174" height="44" rx="22" fill="none" stroke="#8c7464"/>
  <text x="369" y="617" font-family="Noto Sans JP" font-size="16" font-weight="500" fill="#8c7464" text-anchor="middle" letter-spacing="0" opacity="1">Contact</text>

  <line x1="0" y1="736" x2="1440" y2="736" stroke="#ded7ce"/>

  
    <text x="92" y="830" font-family="Noto Serif JP" font-size="38" font-weight="500" fill="#282522" text-anchor="start" letter-spacing="0" opacity="1">About</text>
    <line x1="92" y1="854" x2="132" y2="854" stroke="#8c7464" stroke-width="2"/>
    <text x="92" y="884" font-family="Noto Sans JP" font-size="12" font-weight="600" fill="#6f6860" text-anchor="start" letter-spacing="2.4" opacity="1">PROFILE</text>
  
  <circle cx="279" cy="1036" r="150" fill="#efe8df"/>
  <circle cx="279" cy="1036" r="150" fill="#fffdf8" opacity=".52"/>
  <path d="M276 1100 C244 1040, 247 990, 282 940 C320 986, 324 1040, 292 1100 Z" fill="none" stroke="#b9a99c" stroke-width="2"/>
  <path d="M280 965 C228 910, 184 938, 166 990 M282 965 C340 914, 384 944, 398 1000" fill="none" stroke="#b9a99c" stroke-width="2"/>
  <g fill="#b9a99c"><circle cx="166" cy="990" r="5"/><circle cx="202" cy="952" r="5"/><circle cx="398" cy="1000" r="5"/><circle cx="360" cy="956" r="5"/></g>

  <text x="520" y="910" font-family="Noto Sans JP" font-size="20" font-weight="400" fill="#282522" text-anchor="start" letter-spacing="0" opacity="1">看護師としての臨床経験を活かし、人の役に立つ情報や仕組みを</text><text x="520" y="946" font-family="Noto Sans JP" font-size="20" font-weight="400" fill="#282522" text-anchor="start" letter-spacing="0" opacity="1">Webで届けたいと考えています。現在はWeb制作とAIツールを学び、</text><text x="520" y="982" font-family="Noto Sans JP" font-size="20" font-weight="400" fill="#282522" text-anchor="start" letter-spacing="0" opacity="1">実践を重ねながら、わかりやすい制作物づくりに取り組んでいます。</text>
  <line x1="520" y1="1042" x2="1320" y2="1042" stroke="#ded7ce"/>
  <text x="572" y="1104" font-family="Noto Sans JP" font-size="17" font-weight="500" fill="#6f6860" text-anchor="start" letter-spacing="0" opacity="1">Healthcare Background</text>
  <text x="812" y="1090" font-family="Noto Sans JP" font-size="18" font-weight="400" fill="#282522" text-anchor="start" letter-spacing="0" opacity="1">看護師として患者さんやチームと丁寧に関わり、</text>
  <text x="812" y="1122" font-family="Noto Sans JP" font-size="18" font-weight="400" fill="#282522" text-anchor="start" letter-spacing="0" opacity="1">相手の状況を考える姿勢を大切にしてきました。</text>
  <line x1="520" y1="1160" x2="1320" y2="1160" stroke="#ded7ce"/>
  <text x="572" y="1222" font-family="Noto Sans JP" font-size="17" font-weight="500" fill="#6f6860" text-anchor="start" letter-spacing="0" opacity="1">English Ability</text>
  <text x="812" y="1208" font-family="Noto Sans JP" font-size="18" font-weight="400" fill="#282522" text-anchor="start" letter-spacing="0" opacity="1">日常会話・読み書きが可能です。</text>
  <text x="812" y="1240" font-family="Noto Sans JP" font-size="18" font-weight="400" fill="#282522" text-anchor="start" letter-spacing="0" opacity="1">海外の情報やドキュメントも積極的に活用しています。</text>
  <line x1="520" y1="1278" x2="1320" y2="1278" stroke="#ded7ce"/>
  <text x="572" y="1340" font-family="Noto Sans JP" font-size="17" font-weight="500" fill="#6f6860" text-anchor="start" letter-spacing="0" opacity="1">Learning Now</text>
  <text x="812" y="1326" font-family="Noto Sans JP" font-size="18" font-weight="400" fill="#282522" text-anchor="start" letter-spacing="0" opacity="1">HTML / CSS / JavaScript / PHP などのWeb制作と、</text>
  <text x="812" y="1358" font-family="Noto Sans JP" font-size="18" font-weight="400" fill="#282522" text-anchor="start" letter-spacing="0" opacity="1">AIツールの活用スキルを学んでいます。</text>

  <line x1="92" y1="1430" x2="1348" y2="1430" stroke="#ded7ce"/>
  
    <text x="92" y="1496" font-family="Noto Serif JP" font-size="38" font-weight="500" fill="#282522" text-anchor="start" letter-spacing="0" opacity="1">Skills</text>
    <line x1="92" y1="1520" x2="132" y2="1520" stroke="#8c7464" stroke-width="2"/>
    
  
  
    <rect x="92" y="1542" width="132" height="42" rx="21" fill="#fffdf8" stroke="#ded7ce"/>
    <text x="158" y="1569" font-family="Noto Sans JP" font-size="18" font-weight="400" fill="#282522" text-anchor="middle" letter-spacing="0" opacity="1">HTML</text>
  
  
    <rect x="248" y="1542" width="118" height="42" rx="21" fill="#fffdf8" stroke="#ded7ce"/>
    <text x="307" y="1569" font-family="Noto Sans JP" font-size="18" font-weight="400" fill="#282522" text-anchor="middle" letter-spacing="0" opacity="1">CSS</text>
  
  
    <rect x="390" y="1542" width="172" height="42" rx="21" fill="#fffdf8" stroke="#ded7ce"/>
    <text x="476" y="1569" font-family="Noto Sans JP" font-size="18" font-weight="400" fill="#282522" text-anchor="middle" letter-spacing="0" opacity="1">JavaScript</text>
  
  
    <rect x="586" y="1542" width="118" height="42" rx="21" fill="#fffdf8" stroke="#ded7ce"/>
    <text x="645" y="1569" font-family="Noto Sans JP" font-size="18" font-weight="400" fill="#282522" text-anchor="middle" letter-spacing="0" opacity="1">PHP</text>
  
  
    <rect x="728" y="1542" width="142" height="42" rx="21" fill="#fffdf8" stroke="#ded7ce"/>
    <text x="799" y="1569" font-family="Noto Sans JP" font-size="18" font-weight="400" fill="#282522" text-anchor="middle" letter-spacing="0" opacity="1">GitHub</text>
  
  
    <rect x="894" y="1542" width="152" height="42" rx="21" fill="#fffdf8" stroke="#ded7ce"/>
    <text x="970" y="1569" font-family="Noto Sans JP" font-size="18" font-weight="400" fill="#282522" text-anchor="middle" letter-spacing="0" opacity="1">AI Tools</text>
  
  
    <rect x="1070" y="1542" width="150" height="42" rx="21" fill="#fffdf8" stroke="#ded7ce"/>
    <text x="1145" y="1569" font-family="Noto Sans JP" font-size="18" font-weight="400" fill="#282522" text-anchor="middle" letter-spacing="0" opacity="1">English</text>
  
  
    <rect x="1244" y="1542" width="168" height="42" rx="21" fill="#fffdf8" stroke="#ded7ce"/>
    <text x="1328" y="1569" font-family="Noto Sans JP" font-size="18" font-weight="400" fill="#282522" text-anchor="middle" letter-spacing="0" opacity="1">Healthcare</text>
  

  <line x1="92" y1="1648" x2="1348" y2="1648" stroke="#ded7ce"/>
  
    <text x="92" y="1714" font-family="Noto Serif JP" font-size="38" font-weight="500" fill="#282522" text-anchor="start" letter-spacing="0" opacity="1">Works</text>
    <line x1="92" y1="1738" x2="132" y2="1738" stroke="#8c7464" stroke-width="2"/>
    <text x="92" y="1768" font-family="Noto Sans JP" font-size="12" font-weight="600" fill="#6f6860" text-anchor="start" letter-spacing="2.4" opacity="1">MAIN PORTFOLIO</text>
  
  
    <rect x="92" y="1770" width="384" height="410" rx="8" fill="#fffdf8" stroke="#ded7ce"/>
    <rect x="92" y="1770" width="384" height="190" rx="8" fill="#f2ede6"/>
    <line x1="92" y1="1960" x2="476" y2="1960" stroke="#ded7ce"/>
    
    <rect x="192" y="1806" width="184" height="112" rx="4" fill="none" stroke="#8c7464" stroke-width="2"/>
    <line x1="192" y1="1835" x2="376" y2="1835" stroke="#8c7464" stroke-width="2"/>
    <circle cx="214" cy="1820" r="3" fill="#8c7464"/>
    <circle cx="228" cy="1820" r="3" fill="#8c7464"/>
    <circle cx="242" cy="1820" r="3" fill="#8c7464"/>
    <rect x="222" y="1858" width="58" height="42" fill="none" stroke="#b9a99c" stroke-width="2"/>
    <path d="M229 1890 L246 1871 L260 1884 L276 1865 L296 1898" fill="none" stroke="#b9a99c" stroke-width="2"/>
    <line x1="312" y1="1865" x2="350" y2="1865" stroke="#b9a99c" stroke-width="2"/>
    <line x1="312" y1="1888" x2="350" y2="1888" stroke="#b9a99c" stroke-width="2"/>
  
    <text x="120" y="2010" font-family="Noto Serif JP" font-size="26" font-weight="500" fill="#282522" text-anchor="start" letter-spacing="0" opacity="1">Portfolio Project</text>
    <text x="120" y="2052" font-family="Noto Sans JP" font-size="15" font-weight="400" fill="#6f6860" text-anchor="start" letter-spacing="0" opacity="1">ポートフォリオサイトを自分で設計・制作しました。</text><text x="120" y="2079" font-family="Noto Sans JP" font-size="15" font-weight="400" fill="#6f6860" text-anchor="start" letter-spacing="0" opacity="1">情報を整理し、読みやすく伝えることを意識しています。</text>
    
    <rect x="120" y="2108" width="66" height="30" rx="6" fill="#fbf8f2" stroke="#ded7ce"/>
    <text x="153" y="2128" font-family="Noto Sans JP" font-size="13" font-weight="400" fill="#6f6860" text-anchor="middle" letter-spacing="0" opacity="1">HTML</text>
  
    <rect x="198" y="2108" width="66" height="30" rx="6" fill="#fbf8f2" stroke="#ded7ce"/>
    <text x="231" y="2128" font-family="Noto Sans JP" font-size="13" font-weight="400" fill="#6f6860" text-anchor="middle" letter-spacing="0" opacity="1">CSS</text>
  
    <rect x="276" y="2108" width="124" height="30" rx="6" fill="#fbf8f2" stroke="#ded7ce"/>
    <text x="338" y="2128" font-family="Noto Sans JP" font-size="13" font-weight="400" fill="#6f6860" text-anchor="middle" letter-spacing="0" opacity="1">JavaScript</text>
  
  
  
    <rect x="528" y="1770" width="384" height="410" rx="8" fill="#fffdf8" stroke="#ded7ce"/>
    <rect x="528" y="1770" width="384" height="190" rx="8" fill="#f2ede6"/>
    <line x1="528" y1="1960" x2="912" y2="1960" stroke="#ded7ce"/>
    
    <rect x="645" y="1792" width="142" height="104" rx="8" fill="none" stroke="#8c7464" stroke-width="2"/>
    <line x1="692" y1="1908" x2="740" y2="1908" stroke="#8c7464" stroke-width="2"/>
    <line x1="712" y1="1896" x2="712" y2="1908" stroke="#8c7464" stroke-width="2"/>
    <rect x="782" y="1842" width="50" height="88" rx="8" fill="none" stroke="#8c7464" stroke-width="2"/>
    <circle cx="807" cy="1920" r="2.5" fill="#8c7464"/>
  
    <text x="556" y="2010" font-family="Noto Serif JP" font-size="26" font-weight="500" fill="#282522" text-anchor="start" letter-spacing="0" opacity="1">Web Practice</text>
    <text x="556" y="2052" font-family="Noto Sans JP" font-size="15" font-weight="400" fill="#6f6860" text-anchor="start" letter-spacing="0" opacity="1">レスポンシブ対応のコーポレートサイトを制作。</text><text x="556" y="2079" font-family="Noto Sans JP" font-size="15" font-weight="400" fill="#6f6860" text-anchor="start" letter-spacing="0" opacity="1">レイアウトやUIの工夫、スムーズな動きを学習中です。</text>
    
    <rect x="556" y="2108" width="66" height="30" rx="6" fill="#fbf8f2" stroke="#ded7ce"/>
    <text x="589" y="2128" font-family="Noto Sans JP" font-size="13" font-weight="400" fill="#6f6860" text-anchor="middle" letter-spacing="0" opacity="1">HTML</text>
  
    <rect x="634" y="2108" width="66" height="30" rx="6" fill="#fbf8f2" stroke="#ded7ce"/>
    <text x="667" y="2128" font-family="Noto Sans JP" font-size="13" font-weight="400" fill="#6f6860" text-anchor="middle" letter-spacing="0" opacity="1">CSS</text>
  
    <rect x="712" y="2108" width="124" height="30" rx="6" fill="#fbf8f2" stroke="#ded7ce"/>
    <text x="774" y="2128" font-family="Noto Sans JP" font-size="13" font-weight="400" fill="#6f6860" text-anchor="middle" letter-spacing="0" opacity="1">JavaScript</text>
  
    <rect x="848" y="2108" width="66" height="30" rx="6" fill="#fbf8f2" stroke="#ded7ce"/>
    <text x="881" y="2128" font-family="Noto Sans JP" font-size="13" font-weight="400" fill="#6f6860" text-anchor="middle" letter-spacing="0" opacity="1">PHP</text>
  
  
  
    <rect x="964" y="1770" width="384" height="410" rx="8" fill="#fffdf8" stroke="#ded7ce"/>
    <rect x="964" y="1770" width="384" height="190" rx="8" fill="#f2ede6"/>
    <line x1="964" y1="1960" x2="1348" y2="1960" stroke="#ded7ce"/>
    
    <rect x="1108" y="1786" width="92" height="134" rx="6" fill="none" stroke="#8c7464" stroke-width="2"/>
    <line x1="1122" y1="1800" x2="1098" y2="1800" stroke="#8c7464" stroke-width="2"/>
    <line x1="1122" y1="1826" x2="1098" y2="1826" stroke="#8c7464" stroke-width="2"/>
    <line x1="1122" y1="1852" x2="1098" y2="1852" stroke="#8c7464" stroke-width="2"/>
    <line x1="1122" y1="1878" x2="1098" y2="1878" stroke="#8c7464" stroke-width="2"/>
    <path d="M1230 1798 L1256 1810 L1214 1918 L1193 1938 L1191 1908 Z" fill="none" stroke="#8c7464" stroke-width="2"/>
  
    <text x="992" y="2010" font-family="Noto Serif JP" font-size="26" font-weight="500" fill="#282522" text-anchor="start" letter-spacing="0" opacity="1">Learning Log</text>
    <text x="992" y="2052" font-family="Noto Sans JP" font-size="15" font-weight="400" fill="#6f6860" text-anchor="start" letter-spacing="0" opacity="1">学習の記録と気づきをまとめたブログサイトです。</text><text x="992" y="2079" font-family="Noto Sans JP" font-size="15" font-weight="400" fill="#6f6860" text-anchor="start" letter-spacing="0" opacity="1">継続的にアウトプットし、理解を深めることを目指しています。</text>
    
    <rect x="992" y="2108" width="66" height="30" rx="6" fill="#fbf8f2" stroke="#ded7ce"/>
    <text x="1025" y="2128" font-family="Noto Sans JP" font-size="13" font-weight="400" fill="#6f6860" text-anchor="middle" letter-spacing="0" opacity="1">HTML</text>
  
    <rect x="1070" y="2108" width="66" height="30" rx="6" fill="#fbf8f2" stroke="#ded7ce"/>
    <text x="1103" y="2128" font-family="Noto Sans JP" font-size="13" font-weight="400" fill="#6f6860" text-anchor="middle" letter-spacing="0" opacity="1">CSS</text>
  
    <rect x="1148" y="2108" width="66" height="30" rx="6" fill="#fbf8f2" stroke="#ded7ce"/>
    <text x="1181" y="2128" font-family="Noto Sans JP" font-size="13" font-weight="400" fill="#6f6860" text-anchor="middle" letter-spacing="0" opacity="1">PHP</text>
  
  

  
  <line x1="92" y1="2228" x2="1348" y2="2228" stroke="#ded7ce"/>
  
    <text x="92" y="2294" font-family="Noto Serif JP" font-size="38" font-weight="500" fill="#282522" text-anchor="start" letter-spacing="0" opacity="1">Illustration</text>
    <line x1="92" y1="2318" x2="132" y2="2318" stroke="#8c7464" stroke-width="2"/>
    <text x="92" y="2348" font-family="Noto Sans JP" font-size="12" font-weight="600" fill="#6f6860" text-anchor="start" letter-spacing="2.4" opacity="1">SECONDARY GALLERY</text>
  
  

  
    <rect x="92" y="2350" width="326" height="178" rx="8" fill="#fffdf8" stroke="#ded7ce"/>
    <path d="M172 2460 C220 2392, 254 2400, 294 2466" fill="none" stroke="#b9a99c" stroke-width="2"/>
     <path d="M207 2435 C184 2420, 182 2398, 209 2408" fill="none" stroke="#b9a99c" stroke-width="2"/>
     <path d="M234 2426 C256 2407, 278 2413, 262 2438" fill="none" stroke="#b9a99c" stroke-width="2"/>
     <ellipse cx="270" cy="2460" rx="56" ry="38" fill="#e9ded3" opacity=".55"/>
  
  
    <rect x="452" y="2350" width="326" height="178" rx="8" fill="#fffdf8" stroke="#ded7ce"/>
    <ellipse cx="548" cy="2445" rx="44" ry="38" fill="#cfc6bc"/>
     <ellipse cx="628" cy="2406" rx="44" ry="28" fill="#e7ddd2"/>
     <path d="M584 2478 C648 2388, 722 2428, 672 2500 C642 2540, 586 2526, 584 2478 Z" fill="none" stroke="#b9a99c" stroke-width="2"/>
  
  
    <rect x="812" y="2350" width="326" height="178" rx="8" fill="#fffdf8" stroke="#ded7ce"/>
    <path d="M982 2496 C958 2452, 966 2410, 990 2385 C1014 2412, 1022 2454, 998 2496 Z" fill="none" stroke="#b9a99c" stroke-width="2"/>
     <path d="M990 2408 C934 2370, 908 2400, 898 2432" fill="none" stroke="#7d8b8f" stroke-width="2"/>
     <circle cx="906" cy="2428" r="4" fill="#7d8b8f"/>
     <circle cx="928" cy="2404" r="4" fill="#7d8b8f"/>
     <circle cx="956" cy="2394" r="4" fill="#7d8b8f"/>
     <circle cx="1042" cy="2446" r="42" fill="#e5d9cd"/>
  
  <rect x="1176" y="2417" width="170" height="62" rx="8" fill="#fffdf8" stroke="#8c7464"/>
  <text x="1261" y="2457" font-family="Noto Sans JP" font-size="18" font-weight="400" fill="#282522" text-anchor="middle" letter-spacing="0" opacity="1">More  →</text>

  <line x1="92" y1="2586" x2="1348" y2="2586" stroke="#ded7ce"/>
  
    <text x="92" y="2652" font-family="Noto Serif JP" font-size="38" font-weight="500" fill="#282522" text-anchor="start" letter-spacing="0" opacity="1">Contact</text>
    <line x1="92" y1="2676" x2="132" y2="2676" stroke="#8c7464" stroke-width="2"/>
    <text x="92" y="2706" font-family="Noto Sans JP" font-size="12" font-weight="600" fill="#6f6860" text-anchor="start" letter-spacing="2.4" opacity="1">GET IN TOUCH</text>
  
  <rect x="92" y="2708" width="384" height="86" rx="8" fill="#fffdf8" stroke="#ded7ce"/>
  <text x="160" y="2762" font-family="Noto Sans JP" font-size="19" font-weight="600" fill="#282522" text-anchor="start" letter-spacing="0" opacity="1">Email</text>
  <text x="430" y="2762" font-family="Noto Sans JP" font-size="24" font-weight="400" fill="#282522" text-anchor="middle" letter-spacing="0" opacity="1">↗</text>
  <rect x="528" y="2708" width="384" height="86" rx="8" fill="#fffdf8" stroke="#ded7ce"/>
  <text x="596" y="2762" font-family="Noto Sans JP" font-size="19" font-weight="600" fill="#282522" text-anchor="start" letter-spacing="0" opacity="1">GitHub</text>
  <text x="866" y="2762" font-family="Noto Sans JP" font-size="24" font-weight="400" fill="#282522" text-anchor="middle" letter-spacing="0" opacity="1">↗</text>
  <rect x="964" y="2708" width="384" height="86" rx="8" fill="#fffdf8" stroke="#ded7ce"/>
  <text x="1032" y="2762" font-family="Noto Sans JP" font-size="19" font-weight="600" fill="#282522" text-anchor="start" letter-spacing="0" opacity="1">Wantedly</text>
  <text x="1302" y="2762" font-family="Noto Sans JP" font-size="24" font-weight="400" fill="#282522" text-anchor="middle" letter-spacing="0" opacity="1">↗</text>
  <rect x="0" y="2878" width="1440" height="90" fill="#f4eee6"/>
  <text x="720" y="2932" font-family="Noto Sans JP" font-size="16" font-weight="400" fill="#6f6860" text-anchor="middle" letter-spacing="0" opacity="1">© 2026 Manatsu Sawada</text>
  </svg>